<mxfile host="app.diagrams.net" modified="2023-10-01T16:14:33.550Z" agent="Mozilla/5.0 (Windows NT 10.0; Win64; x64) AppleWebKit/537.36 (KHTML, like Gecko) Chrome/117.0.0.0 Safari/537.36" etag="58fcj5qQLtKlGokjDWp4" version="21.8.0" type="github">
  <diagram name="Halaman-1" id="9vnxkiehi1Rgn3Y64zgw">
    <mxGraphModel dx="880" dy="470" grid="1" gridSize="10" guides="1" tooltips="1" connect="1" arrows="1" fold="1" page="1" pageScale="1" pageWidth="827" pageHeight="1169" math="0" shadow="0">
      <root>
        <mxCell id="0" />
        <mxCell id="1" parent="0" />
        <mxCell id="DxuevxzJJpt-PFkwD-wb-13" value="" style="edgeStyle=orthogonalEdgeStyle;rounded=0;orthogonalLoop=1;jettySize=auto;html=1;" edge="1" parent="1" source="DxuevxzJJpt-PFkwD-wb-1" target="DxuevxzJJpt-PFkwD-wb-2">
          <mxGeometry relative="1" as="geometry" />
        </mxCell>
        <mxCell id="DxuevxzJJpt-PFkwD-wb-1" value="Mulai" style="ellipse;whiteSpace=wrap;html=1;" vertex="1" parent="1">
          <mxGeometry x="320" y="30" width="120" height="40" as="geometry" />
        </mxCell>
        <mxCell id="DxuevxzJJpt-PFkwD-wb-7" value="" style="edgeStyle=orthogonalEdgeStyle;rounded=0;orthogonalLoop=1;jettySize=auto;html=1;" edge="1" parent="1" source="DxuevxzJJpt-PFkwD-wb-2" target="DxuevxzJJpt-PFkwD-wb-3">
          <mxGeometry relative="1" as="geometry" />
        </mxCell>
        <mxCell id="DxuevxzJJpt-PFkwD-wb-2" value="menerima email" style="rounded=0;whiteSpace=wrap;html=1;" vertex="1" parent="1">
          <mxGeometry x="320" y="170" width="120" height="60" as="geometry" />
        </mxCell>
        <mxCell id="DxuevxzJJpt-PFkwD-wb-9" value="" style="edgeStyle=orthogonalEdgeStyle;rounded=0;orthogonalLoop=1;jettySize=auto;html=1;" edge="1" parent="1" source="DxuevxzJJpt-PFkwD-wb-3" target="DxuevxzJJpt-PFkwD-wb-4">
          <mxGeometry relative="1" as="geometry" />
        </mxCell>
        <mxCell id="DxuevxzJJpt-PFkwD-wb-10" style="edgeStyle=orthogonalEdgeStyle;rounded=0;orthogonalLoop=1;jettySize=auto;html=1;exitX=1;exitY=0.5;exitDx=0;exitDy=0;entryX=1;entryY=0.5;entryDx=0;entryDy=0;" edge="1" parent="1" source="DxuevxzJJpt-PFkwD-wb-3" target="DxuevxzJJpt-PFkwD-wb-2">
          <mxGeometry relative="1" as="geometry">
            <Array as="points">
              <mxPoint x="600" y="360" />
              <mxPoint x="600" y="200" />
            </Array>
          </mxGeometry>
        </mxCell>
        <mxCell id="DxuevxzJJpt-PFkwD-wb-3" value="apakah email baru?" style="rhombus;whiteSpace=wrap;html=1;" vertex="1" parent="1">
          <mxGeometry x="295" y="320" width="170" height="80" as="geometry" />
        </mxCell>
        <mxCell id="DxuevxzJJpt-PFkwD-wb-14" value="" style="edgeStyle=orthogonalEdgeStyle;rounded=0;orthogonalLoop=1;jettySize=auto;html=1;" edge="1" parent="1" source="DxuevxzJJpt-PFkwD-wb-4" target="DxuevxzJJpt-PFkwD-wb-5">
          <mxGeometry relative="1" as="geometry" />
        </mxCell>
        <mxCell id="DxuevxzJJpt-PFkwD-wb-4" value="baca email" style="rounded=0;whiteSpace=wrap;html=1;" vertex="1" parent="1">
          <mxGeometry x="320" y="490" width="120" height="60" as="geometry" />
        </mxCell>
        <mxCell id="DxuevxzJJpt-PFkwD-wb-15" value="" style="edgeStyle=orthogonalEdgeStyle;rounded=0;orthogonalLoop=1;jettySize=auto;html=1;" edge="1" parent="1" source="DxuevxzJJpt-PFkwD-wb-5" target="DxuevxzJJpt-PFkwD-wb-6">
          <mxGeometry relative="1" as="geometry" />
        </mxCell>
        <mxCell id="DxuevxzJJpt-PFkwD-wb-5" value="tanggapi email" style="rounded=0;whiteSpace=wrap;html=1;" vertex="1" parent="1">
          <mxGeometry x="320" y="620" width="120" height="60" as="geometry" />
        </mxCell>
        <mxCell id="DxuevxzJJpt-PFkwD-wb-6" value="Selesai" style="ellipse;whiteSpace=wrap;html=1;" vertex="1" parent="1">
          <mxGeometry x="320" y="770" width="120" height="40" as="geometry" />
        </mxCell>
        <mxCell id="DxuevxzJJpt-PFkwD-wb-11" value="Ya" style="text;html=1;align=center;verticalAlign=middle;resizable=0;points=[];autosize=1;strokeColor=none;fillColor=none;" vertex="1" parent="1">
          <mxGeometry x="390" y="428" width="40" height="30" as="geometry" />
        </mxCell>
        <mxCell id="DxuevxzJJpt-PFkwD-wb-12" value="Tidak" style="text;html=1;align=center;verticalAlign=middle;resizable=0;points=[];autosize=1;strokeColor=none;fillColor=none;" vertex="1" parent="1">
          <mxGeometry x="475" y="318" width="50" height="30" as="geometry" />
        </mxCell>
      </root>
    </mxGraphModel>
  </diagram>
</mxfile>
